<?xml version="1.0" encoding="UTF-8"?>
<svg version="1.1" xmlns="http://www.w3.org/2000/svg" width="1054" height="304">
<path d="M0 0 C347.82 0 695.64 0 1054 0 C1054 100.32 1054 200.64 1054 304 C706.18 304 358.36 304 0 304 C0 203.68 0 103.36 0 0 Z " fill="#FEFEFE" transform="translate(0,0)"/>
<path d="M0 0 C1.17600266 -0.01606293 2.35200531 -0.03212585 3.56364441 -0.04867554 C9.00158254 -0.09320392 14.43937275 -0.13471657 19.87744141 -0.15722656 C22.73389515 -0.17045462 25.58961545 -0.19808579 28.44580078 -0.23925781 C31.90949995 -0.28918223 35.37254446 -0.31342211 38.83658791 -0.32045364 C40.77391755 -0.33026589 42.7110766 -0.36438078 44.64811707 -0.39926147 C57.41982827 -0.36935152 68.33256642 2.7997994 77.52075195 11.94287109 C86.66087024 22.28610907 86.96165012 35.11993539 86.87231445 48.29052734 C86.87179469 49.81701151 86.87231688 51.34349635 86.87382507 52.86997986 C86.87373602 56.04436434 86.86343491 59.21849127 86.84521484 62.39282227 C86.8223546 66.4650203 86.82202198 70.53684886 86.82873249 74.60909367 C86.83206612 77.74972333 86.82545679 80.89026827 86.81560326 84.03088188 C86.81175351 85.53362015 86.81060211 87.03636782 86.8121891 88.53911018 C86.81255863 90.62839067 86.79997799 92.71718837 86.78369141 94.80639648 C86.77678032 96.58863365 86.77678032 96.58863365 86.76972961 98.40687561 C86.5090332 101.19287109 86.5090332 101.19287109 84.5090332 103.19287109 C81.83234265 103.41240843 79.25740241 103.50743784 76.57788086 103.51513672 C75.34814545 103.53003143 75.34814545 103.53003143 74.09356689 103.54522705 C71.3700426 103.57452764 68.64675202 103.58809033 65.9230957 103.59912109 C64.02656042 103.61062815 62.13002518 103.62214357 60.23348999 103.63366699 C56.24703894 103.65470924 52.26066872 103.66637701 48.27416992 103.67333984 C43.19230746 103.6842538 38.11153196 103.73217611 33.03000832 103.78928375 C29.10575383 103.82675797 25.18175388 103.83695974 21.25733566 103.8400116 C19.38600156 103.84602623 17.51466985 103.86195237 15.64351273 103.88838196 C4.85257335 104.02979387 -4.44226705 103.96109683 -13.4909668 97.19287109 C-22.26443597 88.03935736 -24.02059883 79.54852296 -23.88549805 67.02099609 C-23.02723446 58.69328997 -18.94799413 53.08730652 -12.7409668 47.69287109 C-4.21352176 40.84771113 5.92453087 40.76908537 16.3918457 40.89990234 C17.68726288 40.90414719 18.98268005 40.90839203 20.31735229 40.9127655 C23.72703075 40.92410732 27.1363132 40.95347925 30.5458374 40.98687744 C34.03872321 41.01781143 37.53167429 41.03132017 41.0246582 41.04638672 C47.85294376 41.07836192 54.68096936 41.12942537 61.5090332 41.19287109 C61.23407695 39.43213339 60.94646642 37.67336882 60.65356445 35.91552734 C60.41536987 34.44611694 60.41536987 34.44611694 60.17236328 32.94702148 C59.17381225 28.80103172 57.65803755 27.04894481 54.5090332 24.19287109 C50.73515069 22.32359324 47.65320365 21.93487697 43.46533203 21.90576172 C42.27091995 21.89234741 41.07650787 21.87893311 39.84590149 21.8651123 C38.56555527 21.85983521 37.28520905 21.85455811 35.96606445 21.84912109 C34.63277508 21.83547589 33.29949695 21.82068809 31.9662323 21.80480957 C27.03379866 21.74855626 22.10125609 21.71312423 17.16864014 21.67718506 C13.66057253 21.65097645 10.15263802 21.62100333 6.6446991 21.58093262 C4.01499309 21.55173634 1.38517127 21.53141794 -1.24467468 21.52062988 C-2.42963028 21.50721558 -3.61458588 21.49380127 -4.83544922 21.47998047 C-5.88182053 21.47268921 -6.92819183 21.46539795 -8.00627136 21.45788574 C-10.4909668 21.19287109 -10.4909668 21.19287109 -12.4909668 19.19287109 C-12.02481011 10.71240519 -9.15444632 0.11328783 0 0 Z " fill="#141518" transform="translate(925.490966796875,91.80712890625)"/>
<path d="M0 0 C2.77129218 0.02362589 5.54162053 0.02054139 8.31298828 0.01391602 C10.1033585 0.01949365 11.89372473 0.02660406 13.68408203 0.03540039 C14.49792358 0.03448898 15.31176514 0.03357758 16.15026855 0.03263855 C28.34325988 0.18016458 37.41373785 3.13748435 46.57470703 11.41040039 C54.00749183 19.19247019 58.39913334 28.5711606 58.41064453 39.34399414 C58.41193359 40.49512695 58.41322266 41.64625977 58.41455078 42.83227539 C58.41068359 44.02981445 58.40681641 45.22735352 58.40283203 46.46118164 C58.40669922 47.66645508 58.41056641 48.87172852 58.41455078 50.11352539 C58.41326172 51.26208008 58.41197266 52.41063477 58.41064453 53.59399414 C58.4095166 54.64731934 58.40838867 55.70064453 58.40722656 56.78588867 C58.27783203 59.33618164 58.27783203 59.33618164 57.27783203 61.33618164 C47.38593827 61.35930592 37.4940509 61.37709716 27.60213566 61.38799381 C23.00940563 61.39322246 18.41669403 61.40031976 13.82397461 61.41162109 C9.39549515 61.42245064 4.96703347 61.42845862 0.53854179 61.43105888 C-1.15482425 61.43291301 -2.84818926 61.43653339 -4.54154778 61.4419117 C-6.90508029 61.44912304 -9.26853842 61.45017254 -11.63208008 61.44970703 C-12.33914093 61.45330231 -13.04620178 61.45689758 -13.77468872 61.46060181 C-18.60811581 61.4502338 -18.60811581 61.4502338 -19.72216797 60.33618164 C-19.82198011 57.65886784 -19.86096672 55.0131399 -19.84716797 52.33618164 C-19.85296875 51.21083008 -19.85296875 51.21083008 -19.85888672 50.06274414 C-19.8487785 44.46279217 -19.8487785 44.46279217 -18.72216797 43.33618164 C-17.03414812 43.24265001 -15.34221589 43.21873373 -13.65161133 43.22265625 C-12.57056625 43.22273178 -11.48952118 43.22280731 -10.37571716 43.22288513 C-8.61168297 43.23062706 -8.61168297 43.23062706 -6.81201172 43.23852539 C-5.61484024 43.23994034 -4.41766876 43.24135529 -3.18421936 43.24281311 C0.65732269 43.24843185 4.49880746 43.26098753 8.34033203 43.27368164 C10.9373364 43.27869423 13.53434168 43.28325755 16.13134766 43.28735352 C22.51352882 43.29840737 28.89567633 43.31516372 35.27783203 43.33618164 C35.16623356 41.91471974 35.04118879 40.49431019 34.91064453 39.07446289 C34.80840576 37.88784058 34.80840576 37.88784058 34.70410156 36.67724609 C34.00434927 32.83421935 32.12690982 29.96167709 29.27783203 27.33618164 C23.85808534 23.68386569 20.03860477 22.72806224 13.56298828 22.76977539 C12.7484166 22.76357681 11.93384491 22.75737823 11.09458923 22.75099182 C9.38102404 22.74392475 7.66738973 22.74701301 5.95385742 22.75976562 C3.35026085 22.77362877 0.75026633 22.73952259 -1.85302734 22.70141602 C-3.52685634 22.70046457 -5.20068977 22.702325 -6.87451172 22.70727539 C-8.02644264 22.68738808 -8.02644264 22.68738808 -9.2016449 22.667099 C-16.73010268 22.79502229 -21.84840725 26.25606699 -27.03466797 31.52368164 C-33.30364829 39.48374929 -33.73891188 49.58214393 -32.72216797 59.33618164 C-30.44242126 68.13951123 -26.34467536 73.63807735 -18.62451172 78.32055664 C-14.90473519 80.3064743 -11.85468162 80.47802814 -7.70605469 80.52563477 C-6.46822235 80.54235229 -5.23039001 80.55906982 -3.95504761 80.57629395 C-3.29450253 80.58297592 -2.63395744 80.5896579 -1.95339584 80.59654236 C0.11390506 80.61759212 2.18105126 80.64461016 4.2482605 80.67321777 C9.37982481 80.74300284 14.51149863 80.80254683 19.64318848 80.86224365 C23.98368902 80.91310056 28.32410425 80.96788622 32.66448593 81.02806091 C34.70583339 81.05470569 36.74718856 81.07547323 38.78860474 81.09606934 C40.63589676 81.12114563 40.63589676 81.12114563 42.52050781 81.14672852 C43.61066193 81.15925659 44.70081604 81.17178467 45.82400513 81.18469238 C48.27783203 81.33618164 48.27783203 81.33618164 49.27783203 82.33618164 C49.37664 83.81270828 49.40862449 85.293854 49.41064453 86.77368164 C49.41193359 87.66829102 49.41322266 88.56290039 49.41455078 89.48461914 C49.41068359 90.42563477 49.40681641 91.36665039 49.40283203 92.33618164 C49.40669922 93.27719727 49.41056641 94.21821289 49.41455078 95.18774414 C49.41326172 96.08235352 49.41197266 96.97696289 49.41064453 97.89868164 C49.4095166 98.7249707 49.40838867 99.55125977 49.40722656 100.40258789 C49.27783203 102.33618164 49.27783203 102.33618164 48.27783203 103.33618164 C46.30787134 103.46184 44.33338587 103.51699259 42.35961914 103.54492188 C41.08996811 103.56421249 39.82031708 103.58350311 38.51219177 103.6033783 C37.10986358 103.61820296 35.7075239 103.63197361 34.30517578 103.64477539 C33.59791414 103.65134722 32.8906525 103.65791904 32.16195869 103.66469002 C28.40234506 103.69736684 24.64276027 103.72177117 20.88305664 103.74121094 C17.79766052 103.75886296 14.7132065 103.79340264 11.62817383 103.84375 C-26.96211707 104.45902067 -26.96211707 104.45902067 -41.60888672 91.53540039 C-53.07542736 79.6025679 -55.89975675 67.66147199 -55.97216797 51.58618164 C-55.99279297 50.45696289 -56.01341797 49.32774414 -56.03466797 48.16430664 C-56.0984825 34.38036777 -52.1721119 23.48520087 -42.47216797 13.58618164 C-37.96576268 9.17040291 -33.5004796 5.86283131 -27.72216797 3.33618164 C-27.09511963 3.0587915 -26.46807129 2.78140137 -25.82202148 2.49560547 C-17.46937638 -0.5525992 -8.76412748 -0.07992785 0 0 Z " fill="#151619" transform="translate(579.72216796875,92.663818359375)"/>
<path d="M0 0 C0.95885101 -0.01606293 1.91770203 -0.03212585 2.90560913 -0.04867554 C7.3205276 -0.09346202 11.73529719 -0.13425392 16.15039062 -0.15722656 C18.46624866 -0.17370149 20.78205766 -0.20087773 23.09765625 -0.23925781 C39.06202521 -0.50224341 52.47828276 -0.58175065 65.27587891 10.23974609 C74.70574428 19.448599 79.27790832 29.8868126 79.53466797 43.03613281 C79.54780011 45.73218684 79.55041544 48.42664316 79.54150391 51.12255859 C79.54285305 52.56365016 79.54479566 54.00474128 79.54730225 55.4458313 C79.55023612 58.44977194 79.54600836 61.45359289 79.53662109 64.45751953 C79.52516552 68.31119618 79.53183517 72.16459609 79.54376602 76.01826286 C79.55097914 78.98646142 79.54870032 81.95459384 79.54351044 84.92279434 C79.54217561 86.34459593 79.54381585 87.7664035 79.54846954 89.18819809 C79.55353219 91.16745645 79.54445157 93.14673591 79.53466797 95.12597656 C79.53307678 96.25212372 79.5314856 97.37827087 79.52984619 98.5385437 C79.27587891 101.19287109 79.27587891 101.19287109 77.27587891 103.19287109 C75.04516602 103.43579102 75.04516602 103.43579102 72.30322266 103.42333984 C71.32160156 103.42140625 70.33998047 103.41947266 69.32861328 103.41748047 C68.30058594 103.40523438 67.27255859 103.39298828 66.21337891 103.38037109 C65.18148437 103.37972656 64.14958984 103.37908203 63.08642578 103.37841797 C55.41603888 103.33303106 55.41603888 103.33303106 54.27587891 102.19287109 C54.16806779 100.30255352 54.12960384 98.40824751 54.11816406 96.51489258 C54.10790192 95.29950302 54.09763977 94.08411346 54.08706665 92.83189392 C54.08362873 92.17770918 54.08019081 91.52352444 54.07664871 90.84951591 C54.06486937 88.80143906 54.04541462 86.75357401 54.02352905 84.70558167 C53.96191435 78.88069822 53.90805553 73.05583072 53.87451172 67.23071289 C53.85345232 63.66968912 53.81804894 60.10904209 53.77375412 56.54823494 C53.75285374 54.54106322 53.74756187 52.53374836 53.74258423 50.526474 C53.62082057 41.43117297 52.90832553 34.02038967 46.27587891 27.19287109 C40.57831503 22.99466613 34.3566251 23.02792744 27.49853516 22.95458984 C26.76896103 22.9465181 26.0393869 22.93844635 25.28770447 22.93013 C23.75229209 22.9163703 22.21685016 22.9056123 20.68139648 22.89770508 C19.12108306 22.88616165 17.56080984 22.8656724 16.00073242 22.83618164 C13.72889792 22.79332587 11.45822455 22.77731696 9.18603516 22.76708984 C8.49727798 22.74958176 7.80852081 22.73207367 7.09889221 22.71403503 C1.22904252 22.74002227 -2.89860205 24.54364053 -7.19248962 28.56962585 C-11.8118901 33.71867186 -12.96392844 38.88235061 -13.02709961 45.64135742 C-13.04374161 46.89898392 -13.06038361 48.15661041 -13.07752991 49.4523468 C-13.08608791 50.80986495 -13.09458565 52.16738347 -13.10302734 53.52490234 C-13.11921566 54.9264185 -13.13639704 56.3279235 -13.15452576 57.72941589 C-13.20004017 61.40321718 -13.23494489 65.07703355 -13.26672363 68.75097656 C-13.31877851 74.64882629 -13.38360933 80.54651351 -13.45493889 86.44415855 C-13.47781168 88.50546667 -13.49404974 90.56675375 -13.50965881 92.62812805 C-13.52314865 93.86999374 -13.53663849 95.11185944 -13.55053711 96.39135742 C-13.56004898 97.49022781 -13.56956085 98.58909821 -13.57936096 99.7212677 C-13.72412109 102.19287109 -13.72412109 102.19287109 -14.72412109 103.19287109 C-16.41970835 103.29219263 -18.11937857 103.32367116 -19.81787109 103.32568359 C-20.84783203 103.32697266 -21.87779297 103.32826172 -22.93896484 103.32958984 C-24.56511719 103.32378906 -24.56511719 103.32378906 -26.22412109 103.31787109 C-27.30822266 103.32173828 -28.39232422 103.32560547 -29.50927734 103.32958984 C-30.53923828 103.32830078 -31.56919922 103.32701172 -32.63037109 103.32568359 C-33.58234375 103.32455566 -34.53431641 103.32342773 -35.51513672 103.32226562 C-37.72412109 103.19287109 -37.72412109 103.19287109 -38.72412109 102.19287109 C-38.83402202 100.1906897 -38.87324511 98.18460279 -38.88525391 96.17944336 C-38.89486145 94.89042618 -38.90446899 93.601409 -38.91436768 92.27333069 C-38.91921882 90.85198137 -38.92349687 89.43063 -38.92724609 88.00927734 C-38.93299915 86.55492654 -38.93875686 85.10057575 -38.94451904 83.64622498 C-38.95504643 80.58698167 -38.96087587 77.52776474 -38.96435547 74.46850586 C-38.96980578 70.57163752 -38.99375098 66.67512472 -39.02232742 62.77836704 C-39.04108197 59.76780738 -39.04616643 56.75733056 -39.04769135 53.74671745 C-39.05069598 52.31197123 -39.05864948 50.8772257 -39.07187653 49.44253731 C-39.20274184 34.13964664 -35.93085226 23.06400105 -25.66162109 11.44287109 C-19.36724952 5.47978224 -8.69074958 0.13268082 0 0 Z " fill="#131517" transform="translate(689.72412109375,92.80712890625)"/>
<path d="M0 0 C4.22864445 -0.17449702 8.45636251 -0.28092495 12.6875 -0.375 C14.48477539 -0.45041016 14.48477539 -0.45041016 16.31835938 -0.52734375 C18.05375977 -0.55634766 18.05375977 -0.55634766 19.82421875 -0.5859375 C20.88729248 -0.6173584 21.95036621 -0.6487793 23.0456543 -0.68115234 C27.15042883 0.26524225 28.82750022 2.6017176 31 6 C32.34846205 8.43572862 33.59085257 10.82297275 34.77734375 13.33203125 C35.47028073 14.75646551 36.16415872 16.18044231 36.85888672 17.60400391 C37.2113446 18.33121643 37.56380249 19.05842896 37.92694092 19.80767822 C39.65479848 23.33779118 41.45283782 26.83103637 43.25390625 30.32421875 C43.60818695 31.01266876 43.96246765 31.70111877 44.32748413 32.41043091 C45.04523936 33.8045461 45.76347048 35.19841638 46.48217773 36.59204102 C47.56719529 38.69660726 48.64988379 40.80236063 49.73242188 42.90820312 C50.44760318 44.29703647 51.16309438 45.68571029 51.87890625 47.07421875 C52.22402252 47.74379608 52.56913879 48.41337341 52.92471313 49.10324097 C54.61373728 52.36725031 56.32501999 55.61616201 58.08544922 58.84228516 C58.41302719 59.44289261 58.74060516 60.04350006 59.07810974 60.66230774 C59.96940438 62.28879974 60.86717064 63.91174063 61.76538086 65.53442383 C63 68 63 68 63 70 C66.50450844 66.82925427 68.48001267 63.24419929 70.29296875 58.90625 C72.21058888 54.38572344 74.50629494 50.08183196 76.8125 45.75 C77.25899902 44.90590576 77.70549805 44.06181152 78.16552734 43.19213867 C80.45130879 38.87966416 82.76457356 34.58467678 85.125 30.3125 C87.57223038 25.87559507 89.82160138 21.3555779 92.0625 16.8125 C98.77551109 3.22448891 98.77551109 3.22448891 102 0 C103.85369611 -0.08737645 105.71067541 -0.10698153 107.56640625 -0.09765625 C108.69111328 -0.09443359 109.81582031 -0.09121094 110.97460938 -0.08789062 C112.15861328 -0.07951172 113.34261719 -0.07113281 114.5625 -0.0625 C115.75037109 -0.05798828 116.93824219 -0.05347656 118.16210938 -0.04882812 C121.10812226 -0.03699675 124.05403681 -0.02051287 127 0 C127 4.53704634 125.62101106 7.12747364 123.51953125 10.984375 C123.15536606 11.66812195 122.79120087 12.3518689 122.41600037 13.05633545 C121.2227434 15.29189357 120.01779433 17.52091225 118.8125 19.75 C117.98142291 21.30107164 117.15102401 22.85250685 116.32128906 24.40429688 C113.89164635 28.9420459 111.44701094 33.47160052 109 38 C108.36557731 39.17635391 107.73128756 40.35277954 107.09716797 41.52929688 C104.45713409 46.42450229 101.80789642 51.31454102 99.1484375 56.19921875 C96.90774032 60.31800186 94.6867607 64.44680227 92.4765625 68.58203125 C86.73269605 79.32161348 80.92972825 89.9992697 74.765625 100.50415039 C72.37443318 104.5886583 70.0536154 108.69298079 67.85717773 112.88574219 C67.21049612 114.11319951 66.55140033 115.33420886 65.87915039 116.54785156 C64.12279011 119.73046523 62.65192337 122.85113368 61.38671875 126.26171875 C57.99428658 134.46458383 57.99428658 134.46458383 54 137 C45.83963282 138.84889885 37.24291503 137.91172344 29 137 C29.5910861 133.13740155 30.73985331 130.28769098 32.66015625 126.89453125 C33.46864014 125.45327881 33.46864014 125.45327881 34.29345703 123.98291016 C34.85661621 122.9985498 35.41977539 122.01418945 36 121 C37.6180791 118.17090269 39.23604126 115.34197363 40.84179688 112.50585938 C41.92063304 110.60039967 43.01216155 108.7020792 44.11523438 106.81054688 C47.09606782 101.61399338 47.09606782 101.61399338 48.09765625 95.82421875 C46.65166837 92.10375884 44.92068145 88.6157867 43 85.125 C42.09086929 83.43634677 41.18203859 81.74753201 40.2734375 80.05859375 C39.50338379 78.63716064 39.50338379 78.63716064 38.71777344 77.18701172 C36.78648793 73.60386775 34.87923307 70.00854924 32.9765625 66.41015625 C26.53492027 54.23370055 20.07058875 42.07360296 13.4375 30 C9.96637497 23.66323326 6.53399549 17.31112741 3.25 10.875 C2.91411865 10.22917969 2.5782373 9.58335938 2.23217773 8.91796875 C0.56329878 5.59373132 0 3.81926373 0 0 Z " fill="#131417" transform="translate(773,92)"/>
<path d="M0 0 C1.21766052 -0.00315216 2.43532104 -0.00630432 3.68988037 -0.009552 C5.64791595 -0.00651566 5.64791595 -0.00651566 7.64550781 -0.00341797 C9.00360125 -0.00409193 10.36169457 -0.00506273 11.7197876 -0.00631714 C14.55750687 -0.00778777 17.39519456 -0.00565865 20.23291016 -0.00097656 C23.87707381 0.00474218 27.52116415 0.00142423 31.16532516 -0.00454903 C33.96533771 -0.00815325 36.76533271 -0.00701708 39.56534576 -0.00442123 C41.56462146 -0.00342711 43.56389782 -0.00647082 45.56317139 -0.009552 C46.76822327 -0.00639984 47.97327515 -0.00324768 49.21484375 0 C50.28120056 0.00079559 51.34755737 0.00159119 52.44622803 0.00241089 C54.84863281 0.12939453 54.84863281 0.12939453 55.84863281 1.12939453 C55.93548884 2.69112198 55.95565501 4.25668797 55.94628906 5.82080078 C55.94145508 7.2371582 55.94145508 7.2371582 55.93652344 8.68212891 C55.92395508 10.17196289 55.92395508 10.17196289 55.91113281 11.69189453 C55.90662109 12.68898438 55.90210938 13.68607422 55.89746094 14.71337891 C55.88563288 17.18544302 55.8691513 19.65738971 55.84863281 22.12939453 C55.15673859 22.13304016 54.46484436 22.13668579 53.75198364 22.14044189 C47.19142832 22.17850607 40.63133474 22.23556454 34.07112312 22.31329727 C30.69941553 22.35259688 27.32796223 22.38486988 23.95605469 22.40039062 C20.06826385 22.42192566 16.18144262 22.46863395 12.29394531 22.52001953 C11.09875275 22.52124817 9.90356018 22.52247681 8.67214966 22.52374268 C-0.50932292 22.68249545 -8.40875037 23.97607544 -15.02636719 30.75439453 C-21.79160051 39.45483644 -23.37690974 48.23707249 -22.15136719 59.12939453 C-20.15259249 67.38276197 -16.05994079 73.65412103 -8.8984375 78.18945312 C-2.94255366 81.10357425 3.25006023 80.73248219 9.75488281 80.73876953 C11.08868392 80.75377445 12.42246662 80.77050641 13.75622559 80.78887939 C17.24138306 80.83230712 20.72629004 80.85249662 24.21166992 80.86761475 C27.77830672 80.88727546 31.34467644 80.92923484 34.91113281 80.96923828 C41.89019819 81.04427303 48.86925322 81.09472557 55.84863281 81.12939453 C55.87751095 84.60854394 55.89538968 88.08766284 55.91113281 91.56689453 C55.91951172 92.56011719 55.92789063 93.55333984 55.93652344 94.57666016 C55.93974609 95.52089844 55.94296875 96.46513672 55.94628906 97.43798828 C55.95152588 98.31253662 55.9567627 99.18708496 55.9621582 100.08813477 C55.84863281 102.12939453 55.84863281 102.12939453 54.84863281 103.12939453 C52.91845932 103.24443846 50.98405841 103.28906983 49.05053711 103.30639648 C47.18675667 103.32564934 47.18675667 103.32564934 45.2853241 103.34529114 C43.91450398 103.35346566 42.54367934 103.36090802 41.17285156 103.36767578 C40.48266245 103.37175131 39.79247334 103.37582684 39.0813694 103.38002586 C35.41712364 103.40093021 31.75291563 103.41520397 28.08862305 103.42456055 C24.33083875 103.43553909 20.57366083 103.46982449 16.81608868 103.50973225 C13.90667251 103.5361124 10.99739483 103.54427187 8.08786964 103.54784203 C6.70499462 103.55266561 5.32212397 103.56415641 3.93936729 103.58288002 C-11.61618439 103.78014834 -24.50014691 99.60535063 -35.96386719 88.87939453 C-45.05471263 79.30755198 -48.73772394 66.80989963 -48.52636719 53.81689453 C-48.51549072 52.90117676 -48.50461426 51.98545898 -48.4934082 51.04199219 C-48.14232756 36.02104018 -44.16621858 25.2618245 -33.77636719 14.25439453 C-29.6098983 10.29271818 -25.3415878 7.55448037 -20.15136719 5.12939453 C-19.36246094 4.74912109 -18.57355469 4.36884766 -17.76074219 3.97705078 C-11.73580176 1.17405697 -6.69158624 0.00497764 0 0 Z " fill="#131518" transform="translate(368.1513671875,92.87060546875)"/>
<path d="M0 0 C1.08003296 0.00326294 1.08003296 0.00326294 2.18188477 0.0065918 C4.37697108 0.0097488 6.57070573 -0.01369198 8.765625 -0.0390625 C10.15950351 -0.04133581 11.55338564 -0.04203884 12.94726562 -0.04101562 C14.85270142 -0.04548706 14.85270142 -0.04548706 16.79663086 -0.05004883 C19.95117188 0.32226562 19.95117188 0.32226562 21.81542969 1.60693359 C23.832521 4.6533832 24.41400749 8.25036045 25.26367188 11.75976562 C28.4878428 24.07224477 33.47158655 33.75555397 41.95117188 43.32226562 C42.73041016 44.24265625 42.73041016 44.24265625 43.52539062 45.18164062 C53.75271432 56.41366363 68.11717589 62.95838511 82.81445312 65.41601562 C86.46092998 66.46954318 87.65092916 67.33250098 89.95117188 70.32226562 C90.45288086 73.57446289 90.45288086 73.57446289 90.44726562 77.38867188 C90.44872086 78.06397446 90.45017609 78.73927704 90.45167542 79.43504333 C90.45002008 80.8580254 90.4384994 82.28102605 90.41772461 83.70385742 C90.38871579 85.88146906 90.39713071 88.05665239 90.41015625 90.234375 C90.40391982 91.61915245 90.39552962 93.00392222 90.38476562 94.38867188 C90.37501709 95.64623291 90.36526855 96.90379395 90.35522461 98.19946289 C89.95117188 101.32226562 89.95117188 101.32226562 88.60766602 103.23608398 C85.8430476 105.04887504 83.10413642 104.63193179 79.95117188 104.32226562 C78.68273437 104.20044922 78.68273437 104.20044922 77.38867188 104.07617188 C57.83387307 101.49897692 38.46049584 91.41269671 23.95117188 78.32226562 C22.69433594 77.278125 22.69433594 77.278125 21.41210938 76.21289062 C3.88031523 61.3407185 -10.68833832 36.42846869 -13.04882812 13.32226562 C-13.26968513 9.64288193 -13.48848158 5.9881996 -13.04882812 2.32226562 C-9.60779247 -1.11877003 -4.64831117 0.01861075 0 0 Z " fill="#FE932A" transform="translate(80.048828125,151.677734375)"/>
<path d="M0 0 C2.59450892 2.71186617 2.31965642 4.63785554 2.33398438 8.34521484 C2.34171875 10.25947266 2.34171875 10.25947266 2.34960938 12.21240234 C2.33704102 13.20916992 2.33704102 13.20916992 2.32421875 14.22607422 C2.3028727 16.2461869 2.32397736 18.26271523 2.34960938 20.28271484 C2.34445313 21.56146484 2.33929688 22.84021484 2.33398438 24.15771484 C2.32947266 25.32737793 2.32496094 26.49704102 2.3203125 27.70214844 C1.69995338 31.51618651 0.52218457 33.18244978 -2.19726562 35.88427734 C-5.08789063 36.74755859 -5.08789063 36.74755859 -8.44726562 37.19677734 C-20.17267458 39.35092346 -31.16549811 45.12012632 -40.19726562 52.88427734 C-40.90882813 53.43083984 -41.62039062 53.97740234 -42.35351562 54.54052734 C-53.64001498 63.66249257 -63.09977846 79.62408231 -65.32226562 93.94677734 C-65.40734375 94.80400391 -65.49242187 95.66123047 -65.58007812 96.54443359 C-66.41923807 99.72580577 -67.61785557 100.8496349 -70.19726562 102.88427734 C-73.35766602 103.38598633 -73.35766602 103.38598633 -77.04492188 103.38037109 C-77.69802841 103.38182632 -78.35113495 103.38328156 -79.02403259 103.38478088 C-80.39993772 103.38312588 -81.77586212 103.37160887 -83.15161133 103.35083008 C-85.25682103 103.32181792 -87.35951917 103.33023707 -89.46484375 103.34326172 C-90.80404868 103.33702532 -92.14324568 103.32863513 -93.48242188 103.31787109 C-94.69808838 103.30812256 -95.91375488 103.29837402 -97.16625977 103.28833008 C-100.19726562 102.88427734 -100.19726562 102.88427734 -102.09912109 101.57275391 C-103.98146371 98.67851612 -103.49006018 95.50786028 -103.25976562 92.19677734 C-103.20747803 91.43929199 -103.15519043 90.68180664 -103.10131836 89.90136719 C-101.3331358 70.72047366 -89.91851211 50.89249818 -77.19726562 36.88427734 C-76.23809092 35.67661178 -75.27967222 34.4683451 -74.32226562 33.25927734 C-70.19696376 28.49580724 -65.16752892 24.71965246 -60.19726562 20.88427734 C-59.41480469 20.27455078 -58.63234375 19.66482422 -57.82617188 19.03662109 C-45.54720162 9.94645593 -15.42991354 -7.83496721 0 0 Z " fill="#533DB0" transform="translate(170.197265625,35.11572265625)"/>
<path d="M0 0 C13.66369383 -2.08333793 29.92696348 1.50693834 42 8 C43.14855469 8.5775 44.29710937 9.155 45.48046875 9.75 C70.5743003 22.51233402 88.29248628 41.49738442 98 68 C99.61980681 73.47673262 100.39240834 78.31007908 100 84 C96.51206242 87.48793758 91.36051068 86.33876411 86.64453125 86.37109375 C85.90283691 86.37093262 85.16114258 86.37077148 84.39697266 86.37060547 C82.14017844 86.37497064 79.88535313 86.41125799 77.62890625 86.44921875 C76.19271502 86.4550886 74.7565145 86.45905687 73.3203125 86.4609375 C71.35989014 86.47326416 71.35989014 86.47326416 69.35986328 86.48583984 C65.4547256 85.92115274 64.34011879 85.10671548 62 82 C61.025978 79.84617671 60.13679527 77.65294824 59.3125 75.4375 C53.13117746 60.00334023 39.84751558 48.07951678 24.7109375 41.58984375 C17.70803972 38.92687929 11.10949133 37.3242822 3.64453125 36.65234375 C1 36 1 36 -0.64257812 34.37353516 C-2.43850779 31.23324231 -2.37243354 28.97833107 -2.36328125 25.37109375 C-2.36263672 24.08912109 -2.36199219 22.80714844 -2.36132812 21.48632812 C-2.35302979 20.82189697 -2.34473145 20.15746582 -2.33618164 19.47290039 C-2.31253509 17.44051611 -2.31563234 15.40944056 -2.32226562 13.37695312 C-2.26703644 3.40055467 -2.26703644 3.40055467 0 0 Z " fill="#0593DD" transform="translate(186,33)"/>
<path d="M0 0 C1.12276085 -0.0049926 1.12276085 -0.0049926 2.26820374 -0.01008606 C3.85449609 -0.01515818 5.44079915 -0.0174943 7.02709961 -0.01733398 C9.45899994 -0.01951898 11.89044574 -0.03766706 14.32226562 -0.05664062 C15.86067553 -0.05957474 17.39908759 -0.06155942 18.9375 -0.0625 C20.03287331 -0.07327827 20.03287331 -0.07327827 21.15037537 -0.08427429 C26.30633318 -0.06085432 26.30633318 -0.06085432 28.53515625 2.16796875 C28.24328109 7.96200127 26.86798129 12.61205578 24.47265625 17.85546875 C24.16030029 18.54753418 23.84794434 19.23959961 23.52612305 19.95263672 C11.04934902 46.92626341 -9.38315598 65.45672231 -36.46484375 77.16796875 C-40.43273931 78.61270517 -44.4387433 79.89725809 -48.46484375 81.16796875 C-50.09097241 81.74814833 -51.71617968 82.33092721 -53.33984375 82.91796875 C-59.4916775 84.74147647 -66.11928306 85.03792465 -72.46484375 84.16796875 C-75.64866253 79.39224058 -74.7981148 73.92752819 -74.78051758 68.34399414 C-74.77735982 66.24117095 -74.80081503 64.13975844 -74.82617188 62.03710938 C-74.82844527 60.69661635 -74.82914818 59.35611956 -74.828125 58.015625 C-74.83110596 56.79883057 -74.83408691 55.58203613 -74.8371582 54.32836914 C-74.4362923 50.92560907 -73.89864514 49.53826726 -71.46484375 47.16796875 C-68.453125 46.3671875 -68.453125 46.3671875 -64.77734375 45.85546875 C-47.31541127 42.91876697 -31.93854035 33.64087005 -20.46484375 20.16796875 C-17.94107237 16.60619462 -15.68301716 12.92562072 -13.46484375 9.16796875 C-7.81003641 0.01186878 -7.81003641 0.01186878 0 0 Z " fill="#05AC5B" transform="translate(256.46484375,171.83203125)"/>
<path d="M0 0 C0.81739655 -0.00315216 1.63479309 -0.00630432 2.47695923 -0.009552 C3.35516327 -0.00752777 4.23336731 -0.00550354 5.13818359 -0.00341797 C6.04160492 -0.00437469 6.94502625 -0.00533142 7.87582397 -0.00631714 C9.78391591 -0.00699739 11.69201017 -0.00515392 13.60009766 -0.00097656 C16.53211614 0.00438629 19.4639823 -0.00093318 22.39599609 -0.00732422 C24.24755893 -0.00666365 26.09912168 -0.00538294 27.95068359 -0.00341797 C28.8329361 -0.0054422 29.7151886 -0.00746643 30.62417603 -0.009552 C36.79666279 0.01443623 36.79666279 0.01443623 37.91162109 1.12939453 C38.01042906 2.60592117 38.04241355 4.08706689 38.04443359 5.56689453 C38.04572266 6.46150391 38.04701172 7.35611328 38.04833984 8.27783203 C38.04447266 9.21884766 38.04060547 10.15986328 38.03662109 11.12939453 C38.04048828 12.07041016 38.04435547 13.01142578 38.04833984 13.98095703 C38.04705078 14.87556641 38.04576172 15.77017578 38.04443359 16.69189453 C38.04330566 17.51818359 38.04217773 18.34447266 38.04101562 19.19580078 C37.91162109 21.12939453 37.91162109 21.12939453 36.91162109 22.12939453 C34.41341135 22.24015072 31.9382171 22.29102206 29.43896484 22.30517578 C27.88361312 22.32839771 26.32827457 22.35251597 24.77294922 22.37744141 C22.31981917 22.41238489 19.86716555 22.44179504 17.41381836 22.45532227 C15.04660722 22.47093236 12.68079895 22.51124691 10.31396484 22.55517578 C9.59280991 22.55326736 8.87165497 22.55135895 8.12864685 22.5493927 C2.68344152 22.67824513 -1.51101531 24.15755058 -6.08837891 27.12939453 C-8.18833589 29.27744805 -8.18833589 29.27744805 -9.52587891 31.69189453 C-9.99896484 32.45630859 -10.47205078 33.22072266 -10.95947266 34.00830078 C-13.01031235 37.86160859 -13.22924237 40.93411215 -13.27783203 45.23730469 C-13.29454956 46.49515778 -13.31126709 47.75301086 -13.32849121 49.04898071 C-13.33517319 49.72032673 -13.34185516 50.39167274 -13.34873962 51.08336258 C-13.3697873 53.18426717 -13.39680557 55.2850194 -13.42541504 57.38583374 C-13.49520439 62.60087501 -13.55474397 67.81602411 -13.61444092 73.03118896 C-13.66529694 77.44214844 -13.72008265 81.85302393 -13.78025818 86.26386642 C-13.80690409 88.33845302 -13.82767103 90.41304719 -13.8482666 92.48770142 C-13.86498413 93.73925018 -13.88170166 94.99079895 -13.89892578 96.28027344 C-13.9177179 97.94215195 -13.9177179 97.94215195 -13.93688965 99.63760376 C-14.08837891 102.12939453 -14.08837891 102.12939453 -15.08837891 103.12939453 C-16.78396616 103.22871607 -18.48363638 103.2601946 -20.18212891 103.26220703 C-21.21208984 103.26349609 -22.24205078 103.26478516 -23.30322266 103.26611328 C-24.929375 103.2603125 -24.929375 103.2603125 -26.58837891 103.25439453 C-27.67248047 103.25826172 -28.75658203 103.26212891 -29.87353516 103.26611328 C-30.90349609 103.26482422 -31.93345703 103.26353516 -32.99462891 103.26220703 C-33.94660156 103.2610791 -34.89857422 103.25995117 -35.87939453 103.25878906 C-38.08837891 103.12939453 -38.08837891 103.12939453 -39.08837891 102.12939453 C-39.18751932 100.27477073 -39.2163719 98.41635323 -39.21777344 96.55908203 C-39.2209256 95.36694092 -39.22407776 94.1747998 -39.22732544 92.9465332 C-39.22530121 91.64562744 -39.22327698 90.34472168 -39.22119141 89.00439453 C-39.22186507 87.65974917 -39.22283562 86.31510393 -39.22409058 84.97045898 C-39.22556864 82.14240365 -39.22341224 79.31437981 -39.21875 76.48632812 C-39.21309628 72.88319338 -39.21630306 69.28013384 -39.22232246 65.67700195 C-39.22596267 62.89381358 -39.22477297 60.11064255 -39.22219467 57.32745361 C-39.22121271 55.35957795 -39.2242248 53.39170159 -39.22732544 51.42382812 C-39.20211989 41.68949509 -39.16991944 32.9283154 -34.65087891 24.12939453 C-34.29598389 23.4373291 -33.94108887 22.74526367 -33.57543945 22.03222656 C-27.25404205 10.3583751 -13.79798411 0.01527459 0 0 Z " fill="#141618" transform="translate(477.08837890625,92.87060546875)"/>
<path d="M0 0 C1.08089401 0.00007553 2.16178802 0.00015106 3.2754364 0.00022888 C4.44113663 0.00539017 5.60683685 0.01055145 6.80786133 0.01586914 C8.5993737 0.01799156 8.5993737 0.01799156 10.42707825 0.02015686 C14.24804166 0.0257619 18.06894683 0.03831528 21.88989258 0.05102539 C24.47778236 0.05603974 27.06567305 0.06060276 29.65356445 0.06469727 C36.00319632 0.07573297 42.35278457 0.09300102 48.70239258 0.11352539 C48.70239258 7.37352539 48.70239258 14.63352539 48.70239258 22.11352539 C40.81874312 22.23711741 32.93565749 22.32786482 25.05126953 22.38818359 C22.36900804 22.41050533 19.68733837 22.44529333 17.00537109 22.49072266 C13.15030003 22.55137064 9.29613488 22.57973666 5.44067383 22.60180664 C3.64198601 22.64051628 3.64198601 22.64051628 1.80696106 22.68000793 C-7.46433772 22.68313195 -7.46433772 22.68313195 -10.53125 19.70800781 C-13.60355496 15.19530777 -14.14763373 11.52193455 -13.29760742 6.11352539 C-9.38724546 1.04062338 -6.19987143 -0.01445191 0 0 Z " fill="#FAFAFA" transform="translate(938.297607421875,151.886474609375)"/>
<path d="M0 0 C0.66 0 1.32 0 2 0 C1.67 0.99 1.34 1.98 1 3 C0.90525114 5.01779311 0.86927784 7.0385784 0.8671875 9.05859375 C0.86589844 10.24904297 0.86460937 11.43949219 0.86328125 12.66601562 C0.86714844 13.91060547 0.87101563 15.15519531 0.875 16.4375 C0.87113281 17.67822266 0.86726562 18.91894531 0.86328125 20.19726562 C0.86457031 21.38900391 0.86585938 22.58074219 0.8671875 23.80859375 C0.86831543 24.89970459 0.86944336 25.99081543 0.87060547 27.11499023 C0.98372223 29.63706707 1.08358738 31.65494557 2 34 C2.99 34.66 3.98 35.32 5 36 C2.625 35.6875 2.625 35.6875 0 35 C-2.39727017 31.40409475 -2.25745804 29.74123429 -2.265625 25.46875 C-2.26820313 24.18355469 -2.27078125 22.89835937 -2.2734375 21.57421875 C-2.26924805 20.90567871 -2.26505859 20.23713867 -2.26074219 19.54833984 C-2.25003768 17.50718453 -2.26064663 15.46690925 -2.2734375 13.42578125 C-2.27085937 12.14058594 -2.26828125 10.85539062 -2.265625 9.53125 C-2.26336914 8.35111328 -2.26111328 7.17097656 -2.25878906 5.95507812 C-2 3 -2 3 0 0 Z " fill="#2AA1E4" transform="translate(186,33)"/>
<path d="M0 0 C0.33 0 0.66 0 1 0 C1.38133299 1.9914056 1.71325582 3.99279077 2 6 C1.67 6.33 1.34 6.66 1 7 C0.87630675 8.9935143 0.8220361 10.9913647 0.79467773 12.98852539 C0.77473251 14.26977798 0.75478729 15.55103058 0.73423767 16.87110901 C0.71725203 18.27995684 0.70037327 19.68880595 0.68359375 21.09765625 C0.66303085 22.53112905 0.64203456 23.96459569 0.62062073 25.39805603 C0.56533141 29.1775312 0.51595255 32.9570617 0.46777344 36.7366333 C0.41760835 40.59074855 0.36189629 44.44478309 0.30664062 48.29882812 C0.19897521 55.86581714 0.09754903 63.4328731 0 71 C-0.33 71 -0.66 71 -1 71 C-1.02319011 62.48102572 -1.04094909 53.96206466 -1.05181217 45.4430666 C-1.0570264 41.48717952 -1.06409754 37.53131408 -1.07543945 33.57543945 C-1.08632021 29.7564237 -1.09228784 25.93742873 -1.09487724 22.11839867 C-1.09672214 20.66278952 -1.10032474 19.20718148 -1.10573006 17.75158119 C-1.11300936 15.70976953 -1.11398804 13.66804329 -1.11352539 11.6262207 C-1.115746 10.46484085 -1.11796661 9.303461 -1.12025452 8.10688782 C-1.01089009 5.28135572 -0.64888537 2.74593633 0 0 Z " fill="#36383A" transform="translate(652,124)"/>
<path d="M0 0 C0.28875 0.61875 0.5775 1.2375 0.875 1.875 C1.93720042 4.13325765 1.93720042 4.13325765 4 6 C6.4255024 6.33145587 6.4255024 6.33145587 9.27587891 6.31884766 C10.3768692 6.33871735 11.4778595 6.35858704 12.61221313 6.37905884 C13.80494843 6.39061005 14.99768372 6.40216125 16.2265625 6.4140625 C18.05349136 6.44311172 18.05349136 6.44311172 19.91732788 6.4727478 C23.8198133 6.53268215 27.72232799 6.57898471 31.625 6.625 C34.2656381 6.66316699 36.90626357 6.70221795 39.546875 6.7421875 C46.03113826 6.83839504 52.51547708 6.92340176 59 7 C59 7.33 59 7.66 59 8 C51.4723122 8.0462929 43.94463912 8.08185365 36.41684151 8.10362434 C32.92156073 8.11407198 29.42637717 8.12824883 25.93115234 8.15087891 C21.91502944 8.17671953 17.89900903 8.18646466 13.8828125 8.1953125 C11.99527756 8.21079636 11.99527756 8.21079636 10.0696106 8.22659302 C8.90855804 8.22674408 7.74750549 8.22689514 6.55126953 8.22705078 C5.52534698 8.231492 4.49942444 8.23593323 3.44241333 8.24050903 C1 8 1 8 -1 6 C-0.625 2.875 -0.625 2.875 0 0 Z " fill="#404244" transform="translate(914,105)"/>
<path d="M0 0 C1.07518387 0.02929848 1.07518387 0.02929848 2.17208862 0.05918884 C3.28848221 0.06268593 3.28848221 0.06268593 4.4274292 0.06625366 C5.99591584 0.07597428 7.56436824 0.0977232 9.13253784 0.13072205 C11.53817433 0.1802599 13.94176869 0.19221029 16.34786987 0.19786072 C17.8726313 0.21194237 19.39737493 0.22814522 20.92208862 0.24668884 C21.64292633 0.25205154 22.36376404 0.25741425 23.10644531 0.26293945 C28.180947 0.38445347 28.180947 0.38445347 30.41427612 2.61778259 C30.53927612 5.24278259 30.53927612 5.24278259 30.41427612 7.61778259 C29.03864758 6.32813083 27.70661219 4.99088967 26.41427612 3.61778259 C26.41427612 2.95778259 26.41427612 2.29778259 26.41427612 1.61778259 C16.18427612 1.61778259 5.95427612 1.61778259 -4.58572388 1.61778259 C-5.87757506 4.20148496 -7.08962628 6.71791555 -8.21072388 9.36778259 C-8.66447388 10.44028259 -9.11822388 11.51278259 -9.58572388 12.61778259 C-10.24572388 12.28778259 -10.90572388 11.95778259 -11.58572388 11.61778259 C-9.68764254 4.81632446 -7.72921858 0.06970283 0 0 Z " fill="#12AC68" transform="translate(254.58572387695313,171.38221740722656)"/>
<path d="M0 0 C8.25 0 16.5 0 25 0 C25 1.32 25 2.64 25 4 C24.34 4.66 23.68 5.32 23 6 C23 5.01 23 4.02 23 3 C20.59458071 1.79729036 18.89633409 1.79683337 16.2109375 1.68359375 C15.26992188 1.64169922 14.32890625 1.59980469 13.359375 1.55664062 C12.37453125 1.51732422 11.3896875 1.47800781 10.375 1.4375 C9.38242187 1.39431641 8.38984375 1.35113281 7.3671875 1.30664062 C4.91160162 1.20038931 2.45591297 1.09835036 0 1 C0 0.67 0 0.34 0 0 Z " fill="#424446" transform="translate(875,92)"/>
<path d="M0 0 C0.66 0.33 1.32 0.66 2 1 C1.49339844 1.68835938 1.49339844 1.68835938 0.9765625 2.390625 C-2.36308951 6.98192426 -2.36308951 6.98192426 -5 12 C-6 9 -6 9 -5.0390625 6.9921875 C-4.57242188 6.29351562 -4.10578125 5.59484375 -3.625 4.875 C-3.16351563 4.17117187 -2.70203125 3.46734375 -2.2265625 2.7421875 C-1 1 -1 1 0 0 Z " fill="#2CB879" transform="translate(249,172)"/>
<path d="M0 0 C0.28875 0.61875 0.5775 1.2375 0.875 1.875 C1.93720042 4.13325765 1.93720042 4.13325765 4 6 C6.57061311 6.64767793 6.57061311 6.64767793 9 7 C9 7.33 9 7.66 9 8 C2.9453125 8.1953125 2.9453125 8.1953125 1 8 C0.34 7.34 -0.32 6.68 -1 6 C-0.625 2.875 -0.625 2.875 0 0 Z " fill="#5B5C5D" transform="translate(914,105)"/>
<path d="M0 0 C0.66 0.99 1.32 1.98 2 3 C1.01 4.98 0.02 6.96 -1 9 C-1.66 8.67 -2.32 8.34 -3 8 C-1.125 2.25 -1.125 2.25 0 0 Z " fill="#292A2D" transform="translate(816,200)"/>
<path d="M0 0 C0.33 0 0.66 0 1 0 C2.20577428 4.94367454 1.6290678 8.20862412 0 13 C-0.33 13 -0.66 13 -1 13 C-1.07654536 8.48382401 -1.10228696 4.40914783 0 0 Z " fill="#5E5F61" transform="translate(652,124)"/>
<path d="M0 0 C2.375 -0.125 2.375 -0.125 5 0 C7 2 7 2 7.125 4.625 C7.08375 5.40875 7.0425 6.1925 7 7 C5.62437146 5.71034824 4.29233607 4.37310707 3 3 C3 2.34 3 1.68 3 1 C2.01 0.67 1.02 0.34 0 0 Z " fill="#2FB578" transform="translate(278,172)"/>
<path d="M0 0 C2.97 0.33 5.94 0.66 9 1 C9 1.33 9 1.66 9 2 C8.05125 2.309375 7.1025 2.61875 6.125 2.9375 C3.13919592 3.87394742 3.13919592 3.87394742 1 5 C0.67 3.35 0.34 1.7 0 0 Z " fill="#1F2123" transform="translate(773,93)"/>
</svg>
